<svg width="28" height="25" viewBox="0 0 28 25" fill="none" xmlns="http://www.w3.org/2000/svg">
<path d="M4.89745 11.4824L5.73028 12.8757C7.01106 15.0184 6.99622 17.6952 5.69173 19.8236L5.66565 19.8661L3.97602 17.1213L2.366 19.6186C2.14807 20.0223 2.05468 20.4416 2.08582 20.8454V20.892C2.14807 21.5753 2.53723 22.1809 3.11315 22.5537C2.92637 23.2835 2.89524 24.0289 3.03533 24.7278C1.22969 24.3084 0.0155691 22.6779 0 20.9075V20.861C0 20.6591 0.0155692 20.4727 0.0466967 20.2708V20.2397C0.0544812 20.2087 0.0583734 20.1814 0.0622657 20.1543C0.0661579 20.1272 0.0700502 20.1 0.0778241 20.0689V20.0378C0.0905167 19.9493 0.113549 19.871 0.138486 19.7862C0.144142 19.767 0.149906 19.7474 0.155659 19.7273C0.155659 19.7195 0.159551 19.7078 0.163443 19.6962C0.167336 19.6845 0.171228 19.673 0.171228 19.6652C0.179002 19.6496 0.186786 19.6302 0.194571 19.6107C0.202355 19.5914 0.21014 19.572 0.217924 19.5564C0.225709 19.5409 0.233483 19.5216 0.241267 19.5021C0.249052 19.4826 0.256837 19.4633 0.264621 19.4477L0.311318 19.3545C0.319102 19.3312 0.330768 19.308 0.342445 19.2847C0.354122 19.2614 0.365799 19.2381 0.373583 19.2148C0.373583 19.1921 0.381924 19.1776 0.392499 19.1594C0.39637 19.1527 0.40054 19.1455 0.404711 19.1372C0.435838 19.0595 0.466976 18.9974 0.513673 18.9198L4.39596 12.3336C4.44789 12.2442 4.49127 12.1696 4.52832 12.1089L4.89745 11.4824Z" fill="#FFDC61"/>
<path d="M14.8252 24.9221L15.658 23.445C16.8767 21.2832 19.1907 19.9725 21.6715 20.0389L20.0211 22.8933L23.137 23.0464C23.5956 23.0332 24.0055 22.9045 24.3396 22.6756L24.38 22.6523C24.9406 22.2567 25.2705 21.6168 25.3053 20.9317C26.0308 20.7285 26.6919 20.3828 27.2271 19.9121C27.7668 21.6854 26.9617 23.5522 25.4363 24.4509L25.396 24.4742C25.2211 24.5751 25.0519 24.6548 24.8616 24.7288L24.8346 24.7443C24.8038 24.7532 24.7784 24.7633 24.7528 24.7736C24.7274 24.7838 24.7019 24.794 24.6711 24.8028L24.6442 24.8183C24.5611 24.8516 24.4819 24.8708 24.3959 24.8917C24.3764 24.8964 24.3567 24.9012 24.3363 24.9062C24.3296 24.91 24.3176 24.9125 24.3056 24.915C24.2936 24.9174 24.2815 24.9199 24.2748 24.9237C24.2574 24.9248 24.2367 24.9277 24.216 24.9308C24.1953 24.9337 24.1747 24.9367 24.1573 24.9376C24.1399 24.9387 24.1192 24.9417 24.0985 24.9447C24.0778 24.9476 24.0571 24.9506 24.0397 24.9516L23.9357 24.9577C23.9116 24.9627 23.8856 24.9641 23.8597 24.9658C23.8337 24.9673 23.8077 24.9687 23.7836 24.9737C23.7638 24.9851 23.7472 24.9851 23.7261 24.9851C23.7184 24.9851 23.7101 24.985 23.7008 24.9856C23.618 24.9974 23.5486 25.0016 23.458 24.9999L18.8275 24.9576L18.8264 24.9593L15.7292 24.9306C15.6758 24.9304 15.6278 24.9299 15.5848 24.9292L14.8252 24.9221Z" fill="#FFDC61"/>
<path d="M17.2967 6.33773H13.866C15.2049 8.60358 17.633 10.0024 20.2647 10.0239L21.8414 10.0368L19.5789 6.35359L17.0635 1.9646C16.7052 1.35863 16.2223 0.876961 15.6771 0.550662C15.6693 0.542888 15.6616 0.539007 15.6538 0.535125C15.646 0.531244 15.6382 0.527351 15.6304 0.519588C14.0882 -0.366074 12.0166 -0.117472 10.7549 1.24987C11.4403 1.48294 12.0789 1.85585 12.6085 2.39966C13.216 2.07337 13.9637 2.05784 14.5867 2.35305L14.6335 2.36859C14.9762 2.55504 15.2877 2.81918 15.5213 3.20764L17.2967 6.33773Z" fill="#FFDC61"/>
<path d="M9.87105 2.49654C10.1784 1.91271 10.6137 1.40825 10.7929 1.229L11.9453 1.38264L12.7519 2.30449C12.6494 2.36851 12.3909 2.56568 12.1757 2.84223C11.9725 3.10365 11.8789 3.38564 11.48 3.96724C11.4323 4.03669 11.378 4.10223 11.313 4.15574C10.3502 4.94775 9.10554 3.97794 9.70627 2.81405C9.78187 2.66753 9.83855 2.55836 9.87105 2.49654Z" fill="#FFDC61"/>
<path d="M4.00572 24.8964C3.34849 24.8384 2.71503 24.6318 2.48045 24.5358L2.177 23.4136L2.71566 22.3135C2.81429 22.3832 3.09606 22.5456 3.43424 22.6372C3.7442 22.7211 4.24491 22.8221 4.83132 22.8194C4.93908 22.8188 5.04752 22.8249 5.15134 22.8539C6.70439 23.286 6.48685 25.0406 4.78559 24.9491C4.48083 24.9327 4.21755 24.915 4.00572 24.8964Z" fill="#FFDC61"/>
<path d="M26.6054 18.508C26.9576 19.0659 27.1677 19.6901 27.2333 19.935L26.5332 20.8611L25.3127 21.0872C25.3084 20.9665 25.2858 20.6555 25.1539 20.3309C25.0219 20.0064 25.0437 20.0886 24.5061 18.8595C24.197 17.9393 25.5994 17.1771 26.1919 17.9461C26.3956 18.2105 26.5436 18.4097 26.6054 18.508Z" fill="#FFDC61"/>
<path d="M8.79547 24.9663L6.75972 21.3941L9.60216 16.4776L5.83789 9.94786L7.91203 6.29883H12.0988L14.9796 11.2922H22.2006L24.3132 14.9796L22.2006 18.5517H16.6696L12.9822 24.9663H8.79547Z" fill="#FFDC61"/>
<path d="M15.4151 20.7348L14.1245 22.98C13.418 24.2091 12.0943 24.9667 10.6767 24.9667C9.52101 24.9667 8.4424 24.3467 7.87023 23.3425C7.18271 22.1362 7.18727 20.6556 7.88226 19.4535L8.31473 18.7054C9.11147 17.327 9.11264 15.6283 8.31748 14.2492L6.97927 11.9277C6.27236 10.7014 6.27158 9.18578 6.97101 7.95526C7.55092 6.93508 8.63723 6.29932 9.81069 6.29932C11.2267 6.29932 12.535 7.05491 13.2425 8.28142L13.6788 9.03755C14.4839 10.4329 15.9723 11.2926 17.5833 11.2926H19.8751C21.3136 11.2926 22.6499 12.0763 23.365 13.3244C23.9473 14.3409 23.9451 15.603 23.3487 16.6112C22.6373 17.8142 21.3436 18.5521 19.946 18.5521H19.1874C17.63 18.5521 16.1913 19.3845 15.4151 20.7348Z" fill="#FFDC61"/>
</svg>
