<svg fill="none" height="22" viewBox="0 0 24 22" width="24" xmlns="http://www.w3.org/2000/svg" xmlns:xlink="http://www.w3.org/1999/xlink"><clipPath id="a"><path d="m0 0h23.1892v22h-23.1892z"/></clipPath><g clip-path="url(#a)" fill="#fff"><path d="m4.68469 5.81768 4.2943-5.81768 4.21621 3.44468-1.3664-.26792-1.0931.15309-2.10807.91859c-.34354.29088-.69489.58176-1.03843.86499-.38259.32151-.7964.60473-1.17117.93389-.08589.07655-.81982.95686-.9994.72721.0078 0-.73394-.95685-.73394-.95685z"/><path d="m4.29424 7.96101 1.32732 1.14823s1.63964-.84203 3.12313-2.44955c0 0 1.17117-1.30132 4.84081-1.53097l1.952 1.53097.9369.84203-2.1081.84203-2.5766 1.45442-4.76273 4.05703-2.81081-.9185-1.87387-2.2199z"/><path d="m2.03003 13.396 2.10811 2.2964 2.96696.8421s3.982-2.9854 4.2943-3.3682l5.4655-3.6743 6.3243 5.9708-3.2793-.689s-4.3724 1.7607-6.0901 2.9089l-6.48046 4.2867s-.15616.0765-.62463 0c0 0-3.74774-1.7606-6.558554-4.4398l-.156156-1.2248z"/></g></svg>