<svg fill="none" height="24" viewBox="0 0 24 24" width="24" xmlns="http://www.w3.org/2000/svg"><circle cx="12" cy="12" r="10.5" stroke="#78a9ff" stroke-width="3"/><path d="m15.0934 11.5752h-2.6394v-2.64044c.0049-.06065-.0028-.12164-.0226-.17916-.0199-.05752-.0514-.1103-.0926-.15502-.0413-.04472-.0914-.08041-.1471-.10482-.0557-.02442-.1158-.03702-.1766-.03702s-.121.0126-.1767.03702c-.0557.02441-.1058.0601-.147.10482s-.0728.0975-.0926.15502c-.0199.05752-.0276.11851-.0227.17916v2.64044h-2.63932c-.06062-.0049-.12161.0028-.1791.0226-.05749.0199-.11025.0514-.15495.0927-.04471.0412-.08039.0913-.10479.147-.0244.0558-.037.116-.037.1768s.0126.121.037.1768c.0244.0557.06008.1058.10479.147.0447.0413.09746.0728.15495.0927.05749.0198.11848.0275.1791.0226h2.64222v2.6404c-.0049.0607.0028.1217.0226.1792.0199.0575.0514.1103.0927.155.0412.0447.0912.0804.1469.1048.0558.0244.1159.0371.1767.0371.0609 0 .121-.0127.1767-.0371s.1058-.0601.147-.1048c.0413-.0447.0728-.0975.0926-.155s.0276-.1185.0227-.1792v-2.6404h2.6393c.0607.0049.1216-.0028.1791-.0226.0575-.0199.1103-.0514.155-.0927.0447-.0412.0803-.0913.1047-.147.0244-.0558.037-.116.037-.1768s-.0126-.121-.037-.1768c-.0244-.0557-.06-.1058-.1047-.147-.0447-.0413-.0975-.0728-.155-.0927-.0575-.0198-.1184-.0275-.1791-.0226z" fill="#fff" stroke="#fff"/></svg>