<svg fill="none" height="24" viewBox="0 0 24 24" width="24" xmlns="http://www.w3.org/2000/svg" xmlns:xlink="http://www.w3.org/1999/xlink"><clipPath id="a"><path d="m0 0h24v24h-24z"/></clipPath><g clip-path="url(#a)" fill="#fff"><path d="m12 24c-6.62246 0-12-5.3775-12-12 0-6.62246 5.37754-12 12-12 6.6225 0 12 5.37754 12 12 0 6.6225-5.3775 12-12 12zm0-22.45989c-5.76257 0-10.45989 4.69732-10.45989 10.45989 0 5.7626 4.69732 10.4599 10.45989 10.4599 5.7626 0 10.4599-4.6973 10.4599-10.4599 0-5.76257-4.6973-10.45989-10.4599-10.45989z"/><path d="m13.3474 22.0749c-4.81284 0-8.72728-3.9144-8.72728-8.7273 0-4.8128 3.91444-8.72724 8.72728-8.72724 4.8128 0 8.7273 3.91444 8.7273 8.72724 0 4.8129-3.9145 8.7273-8.7273 8.7273zm0-15.91443c-3.96578 0-7.18718 3.22139-7.18718 7.18713 0 3.9658 3.2214 7.1872 7.18718 7.1872 3.9658 0 7.1872-3.2214 7.1872-7.1872 0-3.96574-3.2214-7.18713-7.1872-7.18713z"/><path d="m14.5025 16.2995c-3.1187 0-5.64703-2.5284-5.64703-5.6471 0-3.11869 2.52833-5.64703 5.64703-5.64703s5.6471 2.52834 5.6471 5.64703c0 3.1187-2.5284 5.6471-5.6471 5.6471zm0-9.75402c-2.2588 0-4.1069 1.84813-4.1069 4.10692 0 2.2589 1.8481 4.107 4.1069 4.107 2.2589 0 4.107-1.8481 4.107-4.107 0-2.25879-1.8481-4.10692-4.107-4.10692z"/></g></svg>