<svg fill="none" height="20" viewBox="0 0 19 20" width="19" xmlns="http://www.w3.org/2000/svg" xmlns:xlink="http://www.w3.org/1999/xlink"><clipPath id="a"><path d="m0 0h19.1518v18h-19.1518z" transform="matrix(0 -1 1 0 .576172 19.5759)"/></clipPath><g clip-path="url(#a)" fill="#fff"><path d="m3.88656 5.30299c.07008.03941.15329.06131.21022.11387.34161.32846.67883.66131 1.0073 1.00292.37664.39416.36351.96788-.01752 1.33576-.36788.35475-.9416.35037-1.31824-.02628-.93285-.92846-1.85694-1.85693-2.781027-2.78978-.385401-.38978-.385401-.9416 0-1.33138.932847-.93723 1.865697-1.87008 2.807297-2.798545.37664-.372263.95475-.363503 1.31825 0 .36788.367885.37664.932845.00438 1.318245-.32847.34161-.67007.67008-1.01168 1.00292-.05693.05694-.12701.09197-.1927.14015.01314.02628.02628.04817.03942.07445h.24963c3.61752.00438 7.23941.00876 10.85691.01752 1.4935.00438 2.7154.84088 3.1927 2.21168.1183.34598.184.72263.1971 1.09051.0307.74891.0088 1.50219.0044 2.25547 0 .37665-.1533.67884-.4949.86716-.3153.1708-.635.15766-.9372-.02628-.2935-.18394-.4424-.45985-.4424-.80584 0-.73139.0044-1.45839 0-2.18978 0-.89781-.6087-1.53285-1.4978-1.53723-3.6613-.01314-7.32698-.01313-10.9883-.01751-.04817 0-.09635.00876-.14452.00876-.01752.02627-.03942.05255-.06132.08321z"/><path d="m18.5758 7.5804c0 .26715-.0044.53431-.0044.7927 0 .17956-.0044.36351-.0044.54307-.0043.43357-.1927.76642-.5518.9635-.346.18833-.7095.17953-1.0467-.03066-.3197-.20146-.4905-.51241-.4905-.89781s0-.7708 0-1.15182c0-.34599 0-.69197 0-1.03796 0-.83649-.5737-1.42336-1.3883-1.42774-2.7898-.00875-5.62776-.01313-8.37375-.01313-.85401 0-1.71241 0-2.56642-.00438.00876.00876.01752.01314.02627.02189.33285.32409.67884.65694 1.01168 1.0073.41606.43358.4073 1.07738-.02189 1.48905-.41168.39854-1.05986.38541-1.47154-.02627-.99416-.98978-1.90511-1.90511-2.781019-2.78978-.424817-.43358-.429197-1.05548 0-1.48467.945989-.95475 1.891969-1.89636 2.807299-2.798546.41606-.407299 1.05985-.407299 1.47153 0 .41168.411676.41606 1.046716.00876 1.471536-.27153.28467-.56058.56496-.83649.83211l-.17519.17081c-.00876.00876-.02189.01751-.03065.02627h.05255c1.03358 0 2.06278.00438 3.09635.00438 2.54453.00438 5.17661.00438 7.76501.01314 1.5416.00438 2.8073.8803 3.2978 2.28613.1182.33723.1883.72263.2014 1.12117 0 .30219.0044.61314.0044.91971zm-1.8832 1.10803v.26277c0 .31533.1314.55621.3898.71387.2715.16643.5474.17518.8277.02628.2934-.15766.4336-.41168.438-.7708 0-.17957.0043-.36351.0043-.54307.0044-.56058.0132-1.13869-.0087-1.70365-.0131-.37664-.0788-.74452-.1883-1.05985-.4599-1.31387-1.6424-2.13285-3.0876-2.13723-2.5883-.00438-5.22046-.00876-7.76499-.01314-1.03357 0-2.06277-.00438-3.09635-.00438h-.31533l-.11824-.21898.07883-.05693c.0219-.01752.04379-.03066.06569-.0438.0438-.02627.08321-.05255.11387-.08321l.17518-.1708c.27591-.26715.56059-.54745.83212-.82774.32409-.33722.32409-.83649-.00438-1.164962-.32409-.324087-.8365-.324087-1.16496 0-.91533.902192-1.85694 1.843792-2.8073 2.798542-.34161.34598-.34161.83212 0 1.1781.87591.88467 1.78686 1.8 2.78102 2.78978.33284.33285.83649.34161 1.16496.02628.33723-.32847.34599-.83212.01314-1.1781-.32847-.34599-.67445-.67883-1.0073-.99854-.0219-.0219-.06569-.0438-.10949-.06132-.02628-.01314-.05255-.02189-.07883-.03503l-.11387-.06132.17518-.22773.04818-.00438c.01314 0 .03066-.00438.04379-.00438.03504-.00438.07008-.00876.10949-.00876.87154 0 1.74307 0 2.6146.00438 2.74599.00438 5.58399.00438 8.37369.01314.946.00438 1.6073.67883 1.6073 1.64671v1.03796c.0088.28467.0088.58248.0088.88029z"/><path d="m15.2348 14.7804c-.4161-.4204-.8015-.8058-1.1825-1.2-.3328-.3459-.3766-.8277-.1139-1.2.3285-.4642.9898-.5562 1.3971-.1532.9635.9459 1.9139 1.9051 2.8599 2.8686.346.3503.346.9022.0044 1.2481-.9504.9679-1.9139 1.927-2.8862 2.873-.3591.3504-.9372.3154-1.2832-.0438-.3504-.3591-.3723-.9153-.0219-1.2832.3372-.3547.6876-.6919 1.0423-1.0336.0526-.0525.1402-.07.2146-.1051-.0262-.035-.0525-.07-.0788-.1051-.0832 0-.1708 0-.254 0-3.6263-.0043-7.25255-.0087-10.88321-.0175-1.52409-.0044-2.78978-.9328-3.214599-2.365-.087591-.2978-.135767-.6131-.144526-.924-.017518-.7577-.013138-1.5197 0-2.2774.008759-.6788.604375-1.12118 1.221895-.9241.3854.1226.6438.473.64818.8934.00438.7358 0 1.4759 0 2.2117 0 .8891.61752 1.5241 1.51095 1.5241 3.66569.0088 7.32701.0131 10.99271.0175.0438.0044.0832 0 .1708-.0044z"/><path d="m18.5673 15.7263c0 .2497-.0964.5037-.2891.6964-.981.9985-1.9533 1.9664-2.8861 2.8774-.3942.3854-1.038.3635-1.4409-.0438-.3985-.4073-.4117-1.0249-.0219-1.4365.3066-.3241.6351-.6438.9504-.946l.092-.0876c.0087-.0088.0175-.0132.0262-.0219h-.0657c-1.0423 0-2.0803-.0044-3.1226-.0044-2.54451-.0044-5.17225-.0044-7.76057-.0131-1.57664-.0044-2.88175-.9635-3.315328-2.4438-.087592-.3022-.140146-.6307-.148905-.9548-.017519-.762-.013139-1.5153 0-2.2817.004379-.3635.166423-.6876.442333-.8891.26278-.1883.6-.24085.91971-.1401.43796.1401.71825.5299.72263.9985.00438.4336 0 .8759 0 1.3051v.9066c0 .8321.5781 1.4146 1.40146 1.4146 2.76788.0088 5.58394.0088 8.30807.0131l2.597.0044c-.0657-.0701-.1357-.1358-.2014-.2014-.2803-.2803-.5431-.5475-.8059-.819-.3678-.381-.416-.9197-.1226-1.3402.184-.2584.4642-.4204.7752-.4511.2978-.0262.5781.0745.7927.2803.8671.8497 1.8 1.7913 2.8598 2.8686.1971.2015.2935.4555.2935.7095zm-4.6993 2.7942c0 .2058.0832.416.2409.5825.3153.3241.8233.3416 1.1299.0394.9329-.911 1.9007-1.8745 2.8818-2.873.3022-.3066.2978-.7883-.0044-1.0949-1.0599-1.0774-1.9927-2.0146-2.8599-2.8686-.1664-.1621-.3854-.2409-.6175-.219-.2452.0219-.4686.1533-.6131.3591-.2321.3285-.1927.7577.1007 1.0599.2628.2715.5256.5343.8015.819.1226.1226.2496.2496.3766.381l.1708.1752-.2452.0131c-.0307 0-.057.0044-.0789.0044-.0394.0044-.0701.0044-.0963.0044l-2.6803-.0044c-2.72411-.0044-5.54017-.0088-8.30805-.0131-.95037-.0044-1.61606-.6745-1.62044-1.6336 0-.3022 0-.6044 0-.9066 0-.4248 0-.8671 0-1.3007 0-.3723-.22774-.6832-.56934-.7927-.25402-.0789-.52117-.0438-.72701.1095-.218978.1576-.350365.4204-.354744.7138-.00876.7665-.017519 1.5154 0 2.273.008759.3022.056934.6132.140146.8978.407298 1.384 1.629198 2.2818 3.109488 2.2862 2.58832.0087 5.21606.0087 7.76055.0131 1.0424 0 2.0803.0044 3.1227.0044h.3065l.1927.254-.1226.0569c-.0263.0132-.0525.0219-.0788.0351-.0438.0175-.0832.0306-.1051.0525l-.092.092c-.3153.3022-.6394.6175-.946.9416-.1401.1445-.2146.3416-.2146.5387z"/></g></svg>