<svg fill="none" height="14" viewBox="0 0 14 14" width="14" xmlns="http://www.w3.org/2000/svg"><circle cx="7" cy="7" fill="#ff005c" r="7"/><path d="m7.61859 6.99999 2.75321-2.75292c.1709-.17091.1709-.448 0-.61889-.1709-.17091-.44797-.17091-.61887 0l-2.75294 2.75321-2.75292-2.75321c-.17091-.17091-.448-.17091-.61889 0-.17089.1709-.17091.44799 0 .61889l2.75321 2.75292-2.75321 2.75294c-.17091.17091-.17091.44797 0 .61887.1709.1709.44799.1709.61889 0l2.75292-2.75321 2.75293 2.75321c.17091.1709.44798.1709.61888 0s.1709-.44797 0-.61887z" fill="#fff" stroke="#fff"/></svg>